<svg xmlns="http://www.w3.org/2000/svg" width="512" height="409" fill="none" viewBox="0 0 512 409"><path fill="url(#paint0_linear)" d="M329.563 141.237C329.563 219.24 255.788 282.475 164.782 282.475C134.533 282.475 106.281 275.37 81.9171 263.179C62.1243 273.55 36.4468 282.475 6.0684 282.475C3.64579 282.475 1.50522 281.091 0.507813 278.779C-0.465825 276.469 -0.0142599 273.845 1.6494 272.075C1.93539 271.786 20.0313 252.079 33.0134 225.786C12.3753 202.197 0 172.992 0 141.237C0 63.2334 73.7754 0 164.782 0C255.788 0 329.563 63.2334 329.563 141.237Z"/><path fill="url(#paint1_linear)" d="M510.315 398.601C512.015 400.37 512.476 402.994 511.481 405.305C510.462 407.616 508.276 409 505.801 409C476.459 409 451.498 400.991 431.754 391.36C409.476 402.574 383.878 409 356.609 409C283.759 409 222.794 363.373 205.977 301.887C292.122 284.814 356.609 218.504 356.609 139.365C356.609 135.042 356.232 130.801 355.854 126.56C356.109 126.558 356.355 126.525 356.609 126.525C442.43 126.525 512 189.759 512 267.763C512 300.372 499.721 330.312 479.298 354.219C492.469 379.522 510.031 398.318 510.315 398.601Z"/><defs><linearGradient id="paint0_linear" x1="248.018" x2="52.392" y1="34.809" y2="230.44" gradientUnits="userSpaceOnUse"><stop stop-color="#3A0CA3"/><stop offset="1" stop-color="#4361EE"/></linearGradient><linearGradient id="paint1_linear" x1="331.781" x2="455.953" y1="242.523" y2="355.057" gradientUnits="userSpaceOnUse"><stop stop-color="#3A0CA3"/><stop offset="1" stop-color="#4361EE"/></linearGradient></defs></svg>